<svg width="1920" height="1080" viewBox="0 0 1920 1080" fill="none" xmlns="http://www.w3.org/2000/svg">
<rect width="1920" height="1080" rx="49" fill="#27231F"/>
<path d="M599.52 593.44C599.52 597.92 598.54 602.82 596.58 608.14C594.9 613.46 592.52 619.34 589.44 625.78C586.64 631.94 583.84 638.38 581.04 645.1C578.24 651.54 575.86 658.26 573.9 665.26C572.22 672.26 571.38 679.26 571.38 686.26C571.38 695.78 573.48 703.62 577.68 709.78C581.88 716.22 588.18 720.84 596.58 723.64C604.98 726.72 615.34 728.26 627.66 728.26L625.14 741.28C611.98 742.12 599.38 741.84 587.34 740.44C575.3 739.32 564.24 736.66 554.16 732.46C544.36 728.26 536.52 722.1 530.64 713.98C525.04 706.14 522.24 695.78 522.24 682.9C522.24 674.22 523.78 665.54 526.86 656.86C530.22 648.18 534.28 639.36 539.04 630.4C544.08 621.44 549.4 612.48 555 603.52C560.6 594.56 565.92 585.6 570.96 576.64L573.06 585.88L504.18 562.36V549.34L573.06 525.82L570.96 535.06C566.48 526.94 561.44 518.4 555.84 509.44C550.52 500.48 545.2 491.52 539.88 482.56C534.84 473.32 530.64 464.22 527.28 455.26C523.92 446.02 522.24 437.2 522.24 428.8C522.24 415.92 525.04 405.56 530.64 397.72C536.52 389.6 544.36 383.44 554.16 379.24C564.24 375.04 575.3 372.38 587.34 371.26C599.38 369.86 611.98 369.58 625.14 370.42L627.66 383.44C615.34 383.16 604.98 384.56 596.58 387.64C588.18 390.72 581.88 395.34 577.68 401.5C573.48 407.66 571.38 415.64 571.38 425.44C571.38 432.16 572.22 439.16 573.9 446.44C575.86 453.44 578.24 460.3 581.04 467.02C583.84 473.46 586.64 479.76 589.44 485.92C592.52 492.08 594.9 497.96 596.58 503.56C598.54 508.88 599.52 513.64 599.52 517.84C599.52 522.04 598.68 525.96 597 529.6C595.6 533.24 592.66 536.46 588.18 539.26C583.98 542.06 577.68 544.72 569.28 547.24C560.88 549.76 549.96 552.28 536.52 554.8V556.9C549.96 559.42 560.74 561.94 568.86 564.46C577.26 566.98 583.7 569.64 588.18 572.44C592.66 575.24 595.6 578.32 597 581.68C598.68 585.04 599.52 588.96 599.52 593.44ZM1319.76 593.44C1319.76 588.96 1320.46 585.04 1321.86 581.68C1323.54 578.32 1326.62 575.24 1331.1 572.44C1335.58 569.64 1341.88 566.98 1350 564.46C1358.4 561.94 1369.32 559.42 1382.76 556.9V554.8C1369.32 552.28 1358.4 549.76 1350 547.24C1341.6 544.72 1335.16 542.06 1330.68 539.26C1326.48 536.46 1323.54 533.24 1321.86 529.6C1320.46 525.96 1319.76 522.04 1319.76 517.84C1319.76 513.64 1320.74 508.88 1322.7 503.56C1324.66 497.96 1327.04 492.08 1329.84 485.92C1332.64 479.76 1335.44 473.46 1338.24 467.02C1341.04 460.3 1343.28 453.44 1344.96 446.44C1346.92 439.16 1347.9 432.16 1347.9 425.44C1347.9 415.64 1345.8 407.66 1341.6 401.5C1337.4 395.34 1331.1 390.72 1322.7 387.64C1314.58 384.56 1304.22 383.16 1291.62 383.44L1294.56 370.42C1307.44 369.58 1319.9 369.86 1331.94 371.26C1344.26 372.38 1355.32 375.04 1365.12 379.24C1374.92 383.44 1382.62 389.6 1388.22 397.72C1394.1 405.56 1397.04 415.92 1397.04 428.8C1397.04 437.2 1395.36 446.02 1392 455.26C1388.64 464.22 1384.44 473.32 1379.4 482.56C1374.36 491.52 1369.04 500.48 1363.44 509.44C1357.84 518.4 1352.8 526.94 1348.32 535.06L1346.22 525.82L1415.1 549.34V562.36L1346.22 585.88L1348.32 576.64C1353.36 585.6 1358.68 594.56 1364.28 603.52C1369.88 612.48 1375.2 621.44 1380.24 630.4C1385.28 639.36 1389.34 648.18 1392.42 656.86C1395.5 665.54 1397.04 674.22 1397.04 682.9C1397.04 695.78 1394.1 706.14 1388.22 713.98C1382.62 722.1 1374.92 728.26 1365.12 732.46C1355.32 736.66 1344.26 739.32 1331.94 740.44C1319.9 741.84 1307.44 742.12 1294.56 741.28L1291.62 728.26C1304.22 728.26 1314.58 726.72 1322.7 723.64C1331.1 720.84 1337.4 716.22 1341.6 709.78C1345.8 703.62 1347.9 695.78 1347.9 686.26C1347.9 679.26 1346.92 672.26 1344.96 665.26C1343.28 658.26 1341.04 651.54 1338.24 645.1C1335.44 638.38 1332.64 631.94 1329.84 625.78C1327.04 619.34 1324.66 613.46 1322.7 608.14C1320.74 602.82 1319.76 597.92 1319.76 593.44Z" fill="#FFA800"/>
<path d="M691.795 688.36C680.875 688.36 672.195 685.28 665.755 679.12C659.315 672.68 656.095 664.56 656.095 654.76C656.095 644.96 659.315 637.12 665.755 631.24C672.195 625.08 680.875 622 691.795 622C702.995 622 711.675 625.08 717.835 631.24C723.995 637.12 727.075 644.96 727.075 654.76C727.075 664.56 723.995 672.68 717.835 679.12C711.675 685.28 702.995 688.36 691.795 688.36ZM853.827 370V658.12C853.827 663.16 855.787 666.52 859.707 668.2C863.907 669.6 869.087 670.3 875.247 670.3H875.667V685H755.547V670.3H755.967C762.127 670.3 767.167 669.6 771.087 668.2C775.287 666.52 777.387 663.16 777.387 658.12V399.4C777.387 396.32 776.687 394.08 775.287 392.68C774.167 391 772.347 389.74 769.827 388.9C767.307 387.78 763.947 386.8 759.747 385.96L755.547 385.12V370H853.827ZM892.129 685V670.3H892.549C898.709 670.3 903.749 669.6 907.669 668.2C911.869 666.52 913.969 663.16 913.969 658.12V495.58C913.969 492.5 913.409 490.12 912.289 488.44C911.169 486.76 909.209 485.5 906.409 484.66C903.889 483.54 900.529 482.56 896.329 481.72L892.129 480.88V465.76H985.789V510.7L990.409 512.8V666.52C990.409 667.36 991.249 668.06 992.929 668.62C994.889 669.18 997.129 669.6 999.649 669.88C1002.17 670.16 1004.41 670.3 1006.37 670.3H1007.21V685H892.129ZM1140.77 685H1028.63V670.3H1029.05C1031.57 670.3 1034.23 670.16 1037.03 669.88C1039.83 669.6 1042.21 669.18 1044.17 668.62C1046.41 668.06 1047.53 667.36 1047.53 666.52V527.08C1047.53 519.24 1046.97 512.8 1045.85 507.76C1044.73 502.72 1042.63 499.08 1039.55 496.84C1036.75 494.32 1032.97 493.06 1028.21 493.06C1022.61 493.06 1017.15 494.74 1011.83 498.1C1006.79 501.46 1002.17 506.36 997.969 512.8C993.769 518.96 989.709 526.24 985.789 534.64L979.909 516.58C985.509 505.66 991.949 496.14 999.229 488.02C1006.79 479.62 1015.33 473.18 1024.85 468.7C1034.65 463.94 1045.57 461.56 1057.61 461.56C1071.05 461.56 1082.67 464.36 1092.47 469.96C1102.55 475.28 1110.39 483.4 1115.99 494.32C1121.59 504.96 1124.39 518.26 1124.39 534.22V662.74C1124.39 664.7 1125.23 666.24 1126.91 667.36C1128.59 668.48 1130.69 669.32 1133.21 669.88C1135.73 670.16 1138.11 670.3 1140.35 670.3H1140.77V685ZM1280.21 685H1164.71V670.3H1165.13C1167.09 670.3 1169.33 670.16 1171.85 669.88C1174.37 669.6 1176.61 669.18 1178.57 668.62C1180.53 668.06 1181.51 667.36 1181.51 666.52V527.08C1181.51 519.24 1180.81 512.8 1179.41 507.76C1178.29 502.72 1176.33 499.08 1173.53 496.84C1170.73 494.32 1166.81 493.06 1161.77 493.06C1156.17 493.06 1150.85 494.88 1145.81 498.52C1140.77 501.88 1136.01 506.64 1131.53 512.8C1127.33 518.96 1123.27 526.24 1119.35 534.64L1113.89 516.58C1119.49 505.66 1125.93 496.14 1133.21 488.02C1140.77 479.62 1149.31 473.18 1158.83 468.7C1168.35 463.94 1179.27 461.56 1191.59 461.56C1204.75 461.56 1216.23 464.36 1226.03 469.96C1236.11 475.28 1243.95 483.4 1249.55 494.32C1255.15 504.96 1257.95 518.26 1257.95 534.22V658.12C1257.95 663.16 1259.91 666.52 1263.83 668.2C1268.03 669.6 1273.07 670.3 1278.95 670.3H1280.21V685Z" fill="white"/>
<path d="M1047.55 325.35C1043.15 325.35 1039.25 326.4 1035.85 328.5C1032.45 330.5 1029.6 333.5 1027.3 337.5C1025 341.5 1023.25 346.45 1022.05 352.35C1020.95 358.25 1020.4 365.05 1020.4 372.75C1020.4 381.05 1021 388.2 1022.2 394.2C1023.4 400.2 1025.2 405.15 1027.6 409.05C1030.1 412.85 1033.05 415.7 1036.45 417.6C1039.95 419.4 1043.95 420.3 1048.45 420.3C1053.65 420.3 1058.3 419 1062.4 416.4C1066.6 413.7 1070.15 410 1073.05 405.3C1076.05 400.5 1078.2 394.9 1079.5 388.5L1085.8 391.05C1084.3 398.25 1081.75 404.6 1078.15 410.1C1074.55 415.6 1069.9 419.9 1064.2 423C1058.5 426 1051.7 427.5 1043.8 427.5C1036 427.5 1028.8 426.2 1022.2 423.6C1015.7 421 1010.05 417.3 1005.25 412.5C1000.45 407.6 996.7 401.8 994 395.1C991.4 388.4 990.1 380.95 990.1 372.75C990.1 364.55 991.45 357.15 994.15 350.55C996.85 343.85 1000.6 338.1 1005.4 333.3C1010.2 328.4 1015.75 324.65 1022.05 322.05C1028.45 319.35 1035.3 318 1042.6 318C1049.8 318 1055.9 319.1 1060.9 321.3C1065.9 323.4 1069.95 326.3 1073.05 330C1076.15 333.7 1078.35 337.85 1079.65 342.45L1073.8 339.3L1076.5 319.5H1083.25V351.45H1076.8C1075.4 346.35 1073.4 341.85 1070.8 337.95C1068.3 334.05 1065.1 331 1061.2 328.8C1057.4 326.5 1052.85 325.35 1047.55 325.35ZM1130.62 341.4H1137.97V408.3H1130.62V341.4ZM1167.07 371.7V378H1101.67V371.7H1167.07ZM1214.56 341.4H1221.91V408.3H1214.56V341.4ZM1251.01 371.7V378H1185.61V371.7H1251.01Z" fill="#FFA800"/>
</svg>
