<svg width="1920" height="1080" viewBox="0 0 1920 1080" fill="none" xmlns="http://www.w3.org/2000/svg">
<rect width="1920" height="1080" rx="49" fill="#F8F3E1"/>
<path d="M505.475 633.947C505.475 684.587 520.047 721.573 551.988 737.679C581.541 752.581 612.75 749.157 629.827 749.157V696.449C617.445 696.449 597.386 698.589 579.207 683.366C579.207 683.366 566.078 676.203 566.078 633.947C566.078 587.227 550.005 555.61 525.295 535.808C502.454 517.504 464.114 512.513 451 509.938V569.595C464.773 572.3 477.554 575.356 487.468 583.302C495.513 589.749 505.475 602.582 505.475 633.947Z" fill="#FFA800"/>
<path d="M505.475 445.549C505.475 394.909 520.047 357.923 551.988 341.818C581.541 326.916 612.75 330.339 629.827 330.339V383.048C617.445 383.048 597.386 380.907 579.207 396.13C579.207 396.13 566.078 403.293 566.078 445.549C566.078 492.269 550.005 523.886 525.295 543.688C502.454 561.993 464.114 566.984 451 569.559V509.902C464.773 507.197 477.554 504.14 487.468 496.195C495.513 489.748 505.475 476.914 505.475 445.549Z" fill="#FFA800"/>
<path d="M1253.08 633.947C1253.08 684.587 1238.51 721.573 1206.57 737.679C1177.02 752.581 1145.81 749.157 1128.73 749.157V696.449C1141.11 696.449 1161.17 698.589 1179.35 683.366C1179.35 683.366 1192.48 676.203 1192.48 633.947C1192.48 587.227 1208.55 555.61 1233.26 535.808C1256.1 517.504 1294.44 512.513 1307.56 509.938V569.595C1293.78 572.3 1281 575.356 1271.09 583.302C1263.04 589.749 1253.08 602.582 1253.08 633.947Z" fill="#FFA800"/>
<path d="M1253.08 445.549C1253.08 394.909 1238.51 357.923 1206.57 341.818C1177.02 326.916 1145.81 330.339 1128.73 330.339V383.048C1141.11 383.048 1161.17 380.907 1179.35 396.13C1179.35 396.13 1192.48 403.293 1192.48 445.549C1192.48 492.269 1208.55 523.886 1233.26 543.688C1256.1 561.993 1294.44 566.984 1307.56 569.559V509.902C1293.78 507.197 1281 504.14 1271.09 496.195C1263.04 489.748 1253.08 476.914 1253.08 445.549Z" fill="#FFA800"/>
<path d="M706.216 638.228C706.216 659.507 689.21 676.757 668.232 676.757C647.254 676.757 630.249 659.507 630.249 638.228C630.249 616.949 647.254 599.7 668.232 599.7C689.21 599.7 706.216 616.949 706.216 638.228Z" fill="#171717"/>
<path d="M721.58 574.442V344.127H782.183V574.442C782.183 582.107 781.856 586.437 782.261 592.477C782.622 597.872 783.496 601.248 784.504 603.342C785.227 604.843 786.167 606.121 788.649 607.428C791.65 609.008 798.243 611.258 811.204 611.258V672.048C791.73 672.048 774.689 668.732 760.486 661.256C745.763 653.505 735.927 642.235 729.928 629.77C719.37 607.833 721.58 581.574 721.58 574.442Z" fill="#171717"/>
<path d="M897.841 441.305V671.619H837.238V441.305H897.841Z" fill="#171717"/>
<path d="M900.149 449.604C913.251 443.47 931.137 438.469 949.886 444.346C969.411 450.465 983.613 466.335 993.085 488.563C1000.77 506.594 1002.49 523.754 1002.78 550.072C1003.06 575.368 1001.92 615.235 1001.92 676.757H953.268C953.268 612.4 954.42 576.424 954.132 550.619C953.855 525.835 952.134 516.632 948.347 507.745C942.342 493.654 936.881 491.4 935.375 490.928C933.092 490.212 928.577 490.151 920.726 493.826C913.101 497.396 905.257 503.15 898.269 509.059C894.868 511.935 891.905 514.642 889.36 516.978C887.825 518.387 884.06 521.961 881.157 523.928L853.921 483.489C852.963 484.138 852.914 484.28 856.513 480.976C859.102 478.599 862.693 475.312 866.911 471.745C875.161 464.769 886.821 455.844 900.149 449.604Z" fill="#171717"/>
<path d="M1002.15 449.604C1015.25 443.47 1033.14 438.469 1051.89 444.346C1071.41 450.465 1085.61 466.335 1095.09 488.563C1102.77 506.594 1104.49 523.754 1104.78 550.072C1105.07 575.368 1103.92 615.235 1103.92 676.757H1055.27C1055.27 612.4 1056.42 576.424 1056.13 550.619C1055.86 525.835 1054.13 516.632 1050.35 507.745C1044.34 493.654 1038.88 491.4 1037.38 490.928C1035.09 490.212 1030.58 490.151 1022.73 493.826C1015.1 497.396 1007.26 503.15 1000.27 509.059C996.869 511.935 993.905 514.642 991.361 516.978C989.825 518.387 986.061 521.961 983.158 523.928L955.922 483.489C954.963 484.138 954.915 484.28 958.514 480.976C961.103 478.599 964.693 475.312 968.911 471.745C977.162 464.769 988.822 455.844 1002.15 449.604Z" fill="#171717"/>
<path d="M1316 654.955C1310.32 654.955 1305.45 653.83 1301.41 651.58C1297.36 649.307 1294.26 646.148 1292.1 642.102C1289.94 638.034 1288.86 633.318 1288.86 627.955C1288.86 622.591 1289.94 617.886 1292.1 613.841C1294.26 609.773 1297.36 606.614 1301.41 604.364C1305.45 602.091 1310.32 600.955 1316 600.955C1321.14 600.955 1325.58 601.886 1329.33 603.75C1333.1 605.591 1336.02 608.205 1338.09 611.591C1340.16 614.955 1341.2 618.909 1341.23 623.455H1323.77C1323.52 620.705 1322.73 618.614 1321.39 617.182C1320.07 615.727 1318.36 615 1316.27 615C1314.64 615 1313.2 615.477 1311.98 616.432C1310.75 617.364 1309.8 618.784 1309.11 620.693C1308.43 622.58 1308.09 624.955 1308.09 627.818C1308.09 630.682 1308.43 633.068 1309.11 634.977C1309.8 636.864 1310.75 638.284 1311.98 639.239C1313.2 640.17 1314.64 640.636 1316.27 640.636C1317.66 640.636 1318.89 640.318 1319.95 639.682C1321.02 639.023 1321.89 638.068 1322.55 636.818C1323.23 635.545 1323.64 634 1323.77 632.182H1341.23C1341.16 636.795 1340.1 640.818 1338.06 644.25C1336.01 647.659 1333.11 650.295 1329.36 652.159C1325.64 654.023 1321.18 654.955 1316 654.955ZM1348.99 673.636V601.636H1367.67V610.773H1368.08C1368.76 609 1369.76 607.375 1371.08 605.898C1372.4 604.398 1374.04 603.205 1375.99 602.318C1377.95 601.409 1380.22 600.955 1382.81 600.955C1386.26 600.955 1389.55 601.875 1392.66 603.716C1395.8 605.557 1398.34 608.455 1400.3 612.409C1402.28 616.364 1403.26 621.5 1403.26 627.818C1403.26 633.864 1402.32 638.875 1400.43 642.852C1398.57 646.83 1396.07 649.795 1392.93 651.75C1389.82 653.705 1386.4 654.682 1382.67 654.682C1380.22 654.682 1378.03 654.284 1376.09 653.489C1374.18 652.67 1372.55 651.568 1371.18 650.182C1369.84 648.773 1368.81 647.182 1368.08 645.409H1367.81V673.636H1348.99ZM1367.4 627.818C1367.4 630.364 1367.73 632.568 1368.39 634.432C1369.07 636.273 1370.03 637.705 1371.25 638.727C1372.5 639.727 1373.99 640.227 1375.72 640.227C1377.45 640.227 1378.91 639.739 1380.12 638.761C1381.34 637.761 1382.28 636.341 1382.91 634.5C1383.57 632.636 1383.9 630.409 1383.9 627.818C1383.9 625.227 1383.57 623.011 1382.91 621.17C1382.28 619.307 1381.34 617.886 1380.12 616.909C1378.91 615.909 1377.45 615.409 1375.72 615.409C1373.99 615.409 1372.5 615.909 1371.25 616.909C1370.03 617.886 1369.07 619.307 1368.39 621.17C1367.73 623.011 1367.4 625.227 1367.4 627.818ZM1411.15 673.636V601.636H1429.83V610.773H1430.24C1430.92 609 1431.92 607.375 1433.24 605.898C1434.56 604.398 1436.19 603.205 1438.15 602.318C1440.1 601.409 1442.38 600.955 1444.97 600.955C1448.42 600.955 1451.7 601.875 1454.82 603.716C1457.95 605.557 1460.5 608.455 1462.45 612.409C1464.43 616.364 1465.42 621.5 1465.42 627.818C1465.42 633.864 1464.48 638.875 1462.59 642.852C1460.73 646.83 1458.23 649.795 1455.09 651.75C1451.98 653.705 1448.56 654.682 1444.83 654.682C1442.38 654.682 1440.18 654.284 1438.25 653.489C1436.34 652.67 1434.7 651.568 1433.34 650.182C1432 648.773 1430.97 647.182 1430.24 645.409H1429.97V673.636H1411.15ZM1429.56 627.818C1429.56 630.364 1429.89 632.568 1430.55 634.432C1431.23 636.273 1432.18 637.705 1433.41 638.727C1434.66 639.727 1436.15 640.227 1437.88 640.227C1439.6 640.227 1441.07 639.739 1442.27 638.761C1443.5 637.761 1444.43 636.341 1445.07 634.5C1445.73 632.636 1446.06 630.409 1446.06 627.818C1446.06 625.227 1445.73 623.011 1445.07 621.17C1444.43 619.307 1443.5 617.886 1442.27 616.909C1441.07 615.909 1439.6 615.409 1437.88 615.409C1436.15 615.409 1434.66 615.909 1433.41 616.909C1432.18 617.886 1431.23 619.307 1430.55 621.17C1429.89 623.011 1429.56 625.227 1429.56 627.818Z" fill="#454545"/>
</svg>
